/* XPM */
static char *drag_image[]={
"32 32 24 1",
"i c #606020",
"j c #606060",
"k c #6060a0",
"g c #60a060",
"h c #60a0a0",
"m c #60a0e0",
"c c #808080",
"d c #a06020",
"e c #a06060",
"s c #a060a0",
"f c #a0a060",
". c #a0a0a0",
"l c #a0a0e0",
"v c #a0e0a0",
"n c #a0e0e0",
"b c #c3c3c3",
"# c #dcdcdc",
"u c #e06020",
"p c #e06060",
"q c #e0a060",
"o c #e0a0a0",
"r c #e0e060",
"t c #e0e0a0",
"a c #ffffff",
"...............................#",
".aaaaaaaaaaaaaaaaaaaaaaaaaaaaab#",
".aaaaaaaaaaaaaaaaaaaaaaaaaaaaabc",
".aaaaaaaaaaaaaaaaaaaaaaaaaaaaabc",
".aaaaaaaaaaaaaaaaaaaaaaaaaaaaabc",
".aaaabbbbbbbbbbbbbbbbbbbbbaaaabc",
".aaaabdefff.gghgh.hh...ffbaaaabc",
".aaaabifffjjjjjghgjjjjfffbaaaabc",
".aaaabefffjjddjijjdejj.ffbaaaabc",
".aaaabffff.gjjjijjjggf..fbaaaabc",
".aaaabiffffgjhkeehlhgf..fbaaaabc",
".aaaabjffffjmnopplnmhf..fbaaaabc",
".aaaabeffffhnnoppnnnh...fbaaaabc",
".aaaabeefffmnnqppnnnm...fbaaaabc",
".aaaabfjjfjmnnqppnnnhg.fgbaaaabc",
".aaaabfejjjmnnpppnnnhgfgjbaaaabc",
".aaaabfffiihnnqppnnnjggjjbaaaabc",
".aaaabqqfiiknnoppnnljjjjjbaaaabc",
".aaaabqqfjjjmlpppllmjjjjjbaaaabc",
".aaaabrrfg.jsppppo.hhhjjjbaaaabc",
".aaaabrrff.jpppoppphh..jfbaaaabc",
".aaaabrrqfo.pppppppk...f.baaaabc",
".aaaabtqqfo..pppup.....f.baaaabc",
".aaaabv.qff..oooooo...ff.baaaabc",
".aaaab...ffftooqqo...ffffbaaaabc",
".aaaabbbbbbbbbbbbbbbbbbbbbaaaabc",
".aaaaaaaaaaaaaaaaaaaaaaaaaaaaabc",
".aaaaaaaaaaaaaaaaaaaaaaaaaaaaabc",
".aaaaaaaaaaaaaaaaaaaaaaaaaaaaabc",
".aaaaaaaaaaaaaaaaaaaaaaaaaaaaabc",
".bbbbbbbbbbbbbbbbbbbbbbbbbbbbbbc",
"#ccccccccccccccccccccccccccccccc"};
