/* XPM */
static char *edit_paste[] = {
/* columns rows colors chars-per-pixel */
"32 32 123 2",
"   c #000000",
".  c #0b0905",
"X  c #0b0b0a",
"o  c #110703",
"O  c #160a04",
"+  c #121211",
"@  c #1c1c15",
"#  c #1b1b19",
"$  c #252414",
"%  c #383613",
"&  c #383319",
"*  c #252525",
"=  c gray17",
"-  c #323232",
";  c #393939",
":  c #40360f",
">  c #443c0f",
",  c #4c460f",
"<  c #574d0a",
"1  c #5e5313",
"2  c #5f5a11",
"3  c #7b7125",
"4  c #7f7428",
"5  c #444343",
"6  c gray30",
"7  c #564c45",
"8  c #58514d",
"9  c #535353",
"0  c #5a5552",
"q  c #5b5957",
"w  c #5b5a5a",
"e  c #786a5c",
"r  c #646464",
"t  c #6c6c6c",
"y  c #7a6e63",
"u  c #7c736b",
"i  c #737373",
"p  c #7e7975",
"a  c #7c7c7c",
"s  c #817529",
"d  c #807d7a",
"f  c #898337",
"g  c #8f883a",
"h  c #96913d",
"j  c #998b40",
"k  c #9d9a59",
"l  c #998778",
"z  c #a29f5d",
"x  c #aead48",
"c  c #a8a76d",
"v  c #adad70",
"b  c #b5b273",
"n  c #828282",
"m  c #8a8a8a",
"M  c #9c8f86",
"N  c #9e938b",
"B  c #939393",
"V  c #9f9690",
"C  c #9b9b9b",
"Z  c #a19c97",
"A  c #bcab9d",
"S  c #a3a3a3",
"D  c #abaaaa",
"F  c #b2b2b2",
"G  c #bbbbbb",
"H  c #c7a283",
"J  c #c9a689",
"K  c #caaa8e",
"L  c #ccad93",
"P  c #c0be8b",
"I  c #cdb29b",
"U  c #c0b5ad",
"Y  c #ceb6a2",
"T  c #c1bbb5",
"R  c #d0b8a5",
"E  c #d1bdab",
"W  c #c3c290",
"Q  c #cecd98",
"!  c #d1cd9d",
"~  c #d8d388",
"^  c #c4c0bd",
"/  c #d3c0af",
"(  c #d3c2b4",
")  c #d5c6ba",
"_  c #dcd7a9",
"`  c #e8c3a3",
"'  c #eac7a9",
"]  c #eccaaf",
"[  c #eccdb3",
"{  c #eed3bb",
"}  c #e3e1b8",
"|  c #c5c4c4",
" . c #c9c9c9",
".. c #d6cbc0",
"X. c #d8cdc6",
"o. c #dad2cb",
"O. c gray84",
"+. c #dddddd",
"@. c #efd6c0",
"#. c #f0d9c5",
"$. c #f2dcca",
"%. c #e5e5c4",
"&. c #ece2da",
"*. c #f4e0ce",
"=. c #f4e2d3",
"-. c #f5e6d9",
";. c #f5e9dd",
":. c #f2f0cb",
">. c #f3f1d6",
",. c #e2e2e2",
"<. c #ececec",
"1. c #f3eae3",
"2. c #f1edea",
"3. c #f8ede3",
"4. c #f7f6e6",
"5. c #f9f0e7",
"6. c #f9f2eb",
"7. c #fefee1",
"8. c #f2f2f2",
"9. c #fbf6f1",
"0. c #fcf8f5",
"q. c #fefefe",
"w. c None",
/* pixels */
"w.w.w.w.w.w.w.w.w.w.# @ $ & % : > , w.w.w.w.w.w.w.w.w.w.w.w.w.w.",
"w.w.w.w.w.w.w.w.w.# # # 4 ~ x h g # w.w.w.w.w.w.w.w.w.w.w.w.w.w.",
"w.O O                 4 q.>.} Q P j                 O O w.w.w.w.",
"  q.<.8.8.8.8.<.<.<.< q.q.4.:.%.Q v s   O. . .| | G F D o w.w.w.",
"  8.G G G G | G G 3 0.>.%.} _ Q W b z 4   D C C C B m m o w.w.w.",
"  8.G S S C C C s 7.! b c k k f f 4 3 3 2   i a n n n m   w.w.w.",
"  8.G D G D F G 1 # # X .   .               r r i t r t   w.w.w.",
"  8.G B B C F G | n n t t r r w w w q 9 w q q w t t n C     w.w.",
"  8.G G G F C S F D S C ; - - = * = * * * # + X . . a m     w.w.",
"  <.G S S D D S C S B n ; +.+.+.+.+.+.+.+.+.+.+.  |   t       w.",
"  <.F B C S C B m m m n - +.q.q.q.q.q.q.q.q.q.q.+ 8.m         w.",
"  8.G D D F F G F D C m - +.q.q.q.q.q.q.q.q.q.q.# q.8. .      w.",
"  8.G G F S S B m m i t - +.q.n q.n | q.n w n q.- ,.q.8.m     w.",
"  <.F B B B B S C F C m = +.q.q.q.q.q.q.q.q.q.q.5 D +.q.8. .  w.",
"  <.G D D F D F C B n a = +.q.n w q.n w | w n q.5 5 ; - * # + w.",
"  <.F B C C C m n n n a * +.q.q.q.q.q.q.q.q.q.q.8. .S S n i   w.",
"  ,.F m m B B S D S n a * +.q.w S n q.n | w w n 0.2.2.o.T N   w.",
"  ,.F D F D D B B C n a * +.q.q.q.q.q.q.q.q.q.q.0.9.6.&.&.)   w.",
"  ,.F C C C S m n n n i * +.q.n w | w n q.n | q a T d U -.)   w.",
"  +.D a n n m C C B a t = +.q.q.q.q.q.q.q.0.0.9.6.5.3.-.-.(   w.",
"  +.D S S C m m m m a a * +.q.w n | w n S 0.a Z 0 p N u =.(   w.",
"  +.D B B m n a i t t r * +.q.q.q.q.q.8.0.8.6.3.-.;.-.=.$./   w.",
"  O.D m m m m n n m a t * +.q.n w w | l q p q U 8 8 u A #.R   w.",
"  O.S i a a a a a i t r # +.q.q.q.0.9.6.5.3.;.-.=.=.$.#.#.R   w.",
"  O.S B B m m a a t t w # +.q.n w ^ d 0 0 N 8 8 u A y y { I   w.",
"  +.C n n n n a a n w 6 + +.q.0.9.6.5.3.;.-.=.=.$.#.@.{ [ I   w.",
"  +.C a a i a i a i 9 6 + +.0.d q p 0 U 8 N u A y 7 l e [ L   w.",
"  C 9 9 9 6 9 9 9 6 6 5 X +.0.8.5.3.-.-.=.=.$.#.@.{ [ [ ' K   w.",
"w.O O       .           . +.6.3.3.;.-.=.=.#.#.{ { [ ] ' ` J   w.",
"w.w.w.w.w.w.w.w.w.        +.o.X...) ) ( E E R Y I L L K J H   w.",
"w.w.w.w.w.w.w.w.w.                                            w.",
"w.w.w.w.w.w.w.w.w.w.w.w.w.w.w.w.w.w.w.w.w.w.w.w.w.w.w.w.w.w.w.w."
};
