/* XPM */
static char *edit_cut[]={
"32 32 3 1",
". c None",
"# c #000000",
"a c #ffffff",
"................................",
"................................",
"...####.........................",
"..#######.......................",
".###...###..................###.",
".##......##...............##aaa#",
".##.......##.............#aaaa#.",
".###.......##..........##aaaa#..",
"..###......##.........##aaaa#...",
"...###.....##........#aaaaa#....",
"....####..####.....##aaaaa#.....",
"......########....##aaaaa#......",
"........#######..##aaaaa#.......",
"...........#######aaaaa#........",
".............####aaaaa#.........",
"..............##aaaaa#..........",
"..............##a#aa#...........",
".............####aa#a#..........",
"...........########aaa#.........",
"........#######.##aaaaa#........",
"......########...##aaaaa#.......",
"....####..####....##aaaaa#......",
"...###.....##......##aaaaa#.....",
"..###......##........#aaaaa#....",
".###.......##.........##aaaa#...",
".##.......##...........##aaaa#..",
".##......##..............#aaaa#.",
".###...###................##aaa#",
"..#######...................###.",
"...####.........................",
"................................",
"................................"};
