/* XPM */
static char *edit_copy[]={
"32 32 67 2",
"Qt c None",
".# c #000000",
".Q c #101010",
".R c #2a2929",
".H c #4d4d4d",
".Z c #564c45",
".M c #58514d",
".F c #5a5552",
".w c #5b5957",
".h c #5b5a5a",
".v c #676767",
".l c #747474",
".0 c #786a5c",
".W c #7a6e63",
".N c #7c736b",
".z c #7e7975",
".x c #807d7a",
".f c #828282",
".e c #898989",
".m c #998778",
".p c #9e938b",
".U c #9f9690",
".E c #a19c97",
".k c #a3a3a3",
".j c #adacac",
".V c #bcab9d",
".L c #c0b5ad",
".y c #c1bbb5",
"#a c #c4c0bd",
".g c #c4c4c4",
"## c #c7a283",
".6 c #c9a689",
".b c #c9c9c9",
".3 c #caaa8e",
".1 c #ccad93",
".O c #cdb29b",
".T c #ceb6a2",
"#. c #d0b8a5",
".P c #d1bdab",
".K c #d3c0af",
".D c #d3c2b4",
".u c #d5c6ba",
".9 c #d6cbc0",
".8 c #d8cdc6",
".7 c #dad2cb",
".a c #dedede",
".i c #e0e0e0",
".5 c #e8c3a3",
".2 c #eac7a9",
".4 c #eccaaf",
".Y c #eccdb3",
".t c #ece2da",
".X c #eed3bb",
".S c #efd6c0",
".o c #f0d9c5",
".n c #f1edea",
".J c #f2dcca",
".d c #f3f3f3",
".G c #f4e0ce",
".I c #f4e2d3",
".C c #f5e6d9",
".A c #f6e8dd",
".B c #f8ede3",
".s c #f9f2eb",
".r c #fbf6f1",
".q c #fcf8f5",
".c c #fefefe",
"QtQtQtQtQtQtQtQtQtQtQtQtQtQtQtQtQtQtQtQtQtQtQtQtQtQtQtQtQtQtQtQt",
"Qt.#.#.#.#.#.#.#.#.#.#.#.#.#.#QtQtQtQtQtQtQtQtQtQtQtQtQtQtQtQtQt",
"Qt.#.a.a.a.a.a.a.a.a.a.a.a.#.b.#QtQtQtQtQtQtQtQtQtQtQtQtQtQtQtQt",
"Qt.#.a.c.c.c.c.c.c.c.c.c.c.#.d.e.#QtQtQtQtQtQtQtQtQtQtQtQtQtQtQt",
"Qt.#.a.c.c.c.c.c.c.c.c.c.c.#.c.d.b.#QtQtQtQtQtQtQtQtQtQtQtQtQtQt",
"Qt.#.a.c.f.c.f.g.c.f.h.f.c.#.i.c.d.e.#QtQtQtQtQtQtQtQtQtQtQtQtQt",
"Qt.#.a.c.c.c.c.c.c.c.c.c.c.#.j.i.c.d.b.#QtQtQtQtQtQtQtQtQtQtQtQt",
"Qt.#.a.c.f.h.c.f.h.g.h.f.c.#.#.#.#.#.#.#QtQtQtQtQtQtQtQtQtQtQtQt",
"Qt.#.a.c.c.c.c.c.c.c.c.c.c.d.g.k.k.e.l.#QtQtQtQtQtQtQtQtQtQtQtQt",
"Qt.#.a.c.h.k.f.c.f.g.h.h.m.c.n.i.o.j.p.#.#.#.#.#.#.#.#QtQtQtQtQt",
"Qt.#.a.c.c.c.c.c.c.c.c.c.c.q.r.s.i.t.u.#.v.k.a.a.a.#.b.#QtQtQtQt",
"Qt.#.a.c.f.h.g.h.f.c.f.g.w.x.y.z.j.A.u.#.e.g.c.c.c.#.d.e.#QtQtQt",
"Qt.#.a.c.c.c.c.c.c.c.c.r.r.s.B.B.A.C.D.#.e.g.c.c.c.#.c.d.b.#QtQt",
"Qt.#.a.c.h.f.g.h.x.k.q.x.E.F.z.p.x.G.D.#.H.g.z.f.c.#.a.c.d.e.#Qt",
"Qt.#.a.c.c.c.c.c.q.q.s.s.B.B.C.C.I.J.K.#.e.g.c.c.c.#.j.i.c.d.b.#",
"Qt.#.a.c.f.h.h.g.x.h.z.F.L.M.M.N.O.o.P.#.Q.R.g.f.c.#.#.#.#.#.#.#",
"Qt.#.a.c.c.c.c.q.s.s.B.B.C.C.I.J.o.S.T.#.e.g.c.c.c.d.g.k.k.f.l.#",
"Qt.#.a.c.f.h.y.z.F.F.U.M.M.N.V.W.W.X.O.#.f.H.g.h.z.c.d.d.a.g.k.#",
"Qt.#.a.c.q.r.s.s.B.A.C.I.J.J.o.S.X.Y.O.#.e.g.c.c.c.c.c.c.d.d.g.#",
"Qt.#.a.c.z.F.z.F.V.M.p.N.V.W.Z.m.0.Y.1.#.#.H.c.g.h.f.g.f.g.c.i.#",
"Qt.#.a.r.s.B.B.A.B.I.G.J.o.S.X.Y.Y.2.3.#.e.g.c.c.c.c.c.c.c.c.a.#",
"Qt.#.a.s.s.B.A.C.C.G.J.o.S.X.Y.4.2.5.6.#.#.H.k.f.k.h.f.k.f.c.a.#",
"Qt.#.a.7.8.9.u.u.D.P.P#..T.O.1.1.3.6##.#.e.g.c.c.c.c.c.c.c.c.a.#",
"Qt.#.#.#.#.#.#.#.#.#.#.#.#.#.#.#.#.#.#.#.H.H.h.h.g.h.h.f.g.c.a.#",
"QtQtQtQtQtQtQtQtQtQtQtQtQt.#.k.g#a.g.g.g.g.g.c.c.c.c.c.c.c.c.a.#",
"QtQtQtQtQtQtQtQtQtQtQtQtQt.#.a.c.f.h.g.f.h.h.k.h.h.f.g.f.f.c.a.#",
"QtQtQtQtQtQtQtQtQtQtQtQtQt.#.a.c.c.c.c.c.c.c.c.c.c.c.c.c.c.c.a.#",
"QtQtQtQtQtQtQtQtQtQtQtQtQt.#.a.c.f.h.f.h.g.h.k.f.g.f.h.k.f.c.a.#",
"QtQtQtQtQtQtQtQtQtQtQtQtQt.#.a.c.c.c.c.c.c.c.c.c.c.c.c.c.c.c.a.#",
"QtQtQtQtQtQtQtQtQtQtQtQtQt.#.a.c.c.c.c.c.c.c.c.c.c.c.c.c.c.c.a.#",
"QtQtQtQtQtQtQtQtQtQtQtQtQt.#.a.a.a.a.a.a.a.a.a.a.a.a.a.a.a.a.a.#",
"QtQtQtQtQtQtQtQtQtQtQtQtQt.#.#.#.#.#.#.#.#.#.#.#.#.#.#.#.#.#.#.#"};
