/* XPM */
static char *file_quit[]={
"17 16 3 1",
". c None",
"# c #000000",
"a c #dcdcdc",
".................",
".................",
"........##.......",
"........##.......",
".....##.##.##....",
"....###.##.###...",
"...###..##..###..",
"...##a..##..a##..",
"...##...##...##..",
"...##...##...##..",
"...##a..##..a##..",
"...###......###..",
"....###a..a###...",
".....########....",
"......######.....",
"................."};
