/* XPM */
static char *file_recent[]={
"18 18 3 1",
". c None",
"# c #000000",
"a c #ffffff",
"..................",
".......####.......",
"......#aa####.....",
"....###aaaa####...",
"...#aa##aaaaa####.",
"...#aaaa##aaaaa###",
"..#aaaaaaa##aaa###",
"..#aaaaaaaaa#a####",
".#aaaaaaaaaa#a####",
".#aaaaaaaaa#a####.",
"#aaaaaaaaaa#a####.",
"#aaaaaaaaa#a####..",
"###aaaaaaa#a####..",
"#####aaaa######...",
".######aa######...",
"...###########....",
".....#######......",
".......####......."};
