/* XPM */
static char *nbr_edge[]={
"16 16 5 1",
". c None",
"# c #000000",
"b c #7f7f7f",
"a c #c0c0c0",
"c c #ffffff",
".......##a......",
".......##b......",
"......#cc#a.....",
"......#cc#b.....",
"......#cc#b.....",
"......#cc#b.....",
".....#cccc#a....",
".....#cccc#b....",
".....#cccc#b....",
".....#cccc#b....",
".....#cccc#b....",
"################",
"b#cc#bbbbbb#cc#b",
".b#c#b.....#c#b.",
"..b#bb.....b#b..",
"...bb.......b..."};
