/* XPM */
static char *pt_lut[]={
"16 16 5 1",
"# c None",
"c c #000000",
". c #7f7f7f",
"b c #c0c0c0",
"a c #ffffff",
"...............#",
".aaa.aaaaaaaaabc",
".aaa.aaaaaaaaabc",
"...............c",
".aaa.aaaaaaaaabc",
".aca.acaccacaabc",
".aaa.aaaaaaaaabc",
".aca.acaccaaaabc",
".aaa.aaaaaaaaabc",
".aca.accaccacabc",
".aaa.aaaaaaaaabc",
".aca.acacacaaabc",
".aaa.aaaaaaaaabc",
".bbb.bbbbbbbbbbc",
"cccccccccccccccc",
"################"};
