/* XPM */
static char *pt_thr[]={
"16 16 3 1",
". c None",
"# c #000000",
"a c #7f7f7f",
"................",
".......#########",
".......#aaaaaaaa",
".......#a.......",
".......#a.......",
".......#a.......",
".......#a.......",
".......#a.......",
".......#a.......",
".......#a.......",
".......#a.......",
".......#a.......",
".......#a.......",
"########a.......",
"aaaaaaaaa.......",
"................"};
