/* XPM */
static char *win_layout9[] = {
/* columns rows colors chars-per-pixel */
"16 16 5 1",
"  c opaque",
". c gray50",
"X c #c0c0c0",
"o c white",
"O c None",
/* pixels */
"...O...O...O...O",
".oX .oX .oX .oX ",
".XX .XX .XX .XX ",
"                ",
"...O...O...O...O",
".oX .oX .oX .oX ",
".XX .XX .XX .XX ",
"                ",
"...O...O...O...O",
".oX .oX .oX .oX ",
".XX .XX .XX .XX ",
"                ",
"...O...O...O...O",
".oX .oX .oX .oX ",
".XX .XX .XX .XX ",
"                "
};
