/* XPM */
static char *win_layout8[] = {
/* columns rows colors chars-per-pixel */
"16 16 5 1",
"  c opaque",
". c gray50",
"X c #c0c0c0",
"o c white",
"O c None",
/* pixels */
"....O....O....OO",
".ooX .ooX .ooX O",
".ooX .ooX .ooX O",
".XXX .XXX .XXX O",
"               O",
"....O....O....OO",
".ooX .ooX .ooX O",
".ooX .ooX .ooX O",
".XXX .XXX .XXX O",
"               O",
"....O....O....OO",
".ooX .ooX .ooX O",
".ooX .ooX .ooX O",
".XXX .XXX .XXX O",
"               O",
"OOOOOOOOOOOOOOOO"
};
