/* XPM */
static char *win_layout1[] = {
/* columns rows colors chars-per-pixel */
"16 16 5 1",
"  c opaque",
". c gray50",
"X c #c0c0c0",
"o c white",
"O c None",
/* pixels */
"..............OO",
".ooooooooooooX O",
".ooooooooooooX O",
".ooooooooooooX O",
".ooooooooooooX O",
".XXXXXXXXXXXXX O",
"               O",
"OOOOOOOOOOOOOOOO",
"..............OO",
".ooooooooooooX O",
".ooooooooooooX O",
".ooooooooooooX O",
".ooooooooooooX O",
".XXXXXXXXXXXXX O",
"               O",
"OOOOOOOOOOOOOOOO"
};
