/* XPM */
static const char *zoomMin[] = {
/* columns rows colors chars-per-pixel */
"22 22 91 1",
"  c opaque",
". c #0b0904",
"X c #130f09",
"o c #161c23",
"O c #1b232b",
"+ c #241700",
"@ c #251900",
"# c #362400",
"$ c #222a32",
"% c #28323d",
"& c #323e4a",
"* c #374554",
"= c #384755",
"- c #3a4956",
"; c #3c4b59",
": c #483000",
"> c #563900",
", c #593c00",
"< c #624200",
"1 c #64470c",
"2 c #734d00",
"3 c #715a2d",
"4 c #4a5865",
"5 c #495a69",
"6 c #526273",
"7 c #5c6c7c",
"8 c #7b6945",
"9 c #7e6e4e",
"0 c #61707d",
"q c #416590",
"w c #436892",
"e c #55789f",
"r c #5679a0",
"t c #597ca2",
"y c #607283",
"u c #6c8195",
"i c #7a8895",
"p c #6182a5",
"a c #6284a8",
"s c #698bae",
"d c #7494b4",
"f c #7f97b0",
"g c #7d9cbc",
"h c #815600",
"j c #966400",
"k c #9b6905",
"l c #9f6f0f",
"z c #936d21",
"x c #aa802b",
"c c #ac925f",
"v c #b48f44",
"b c #b69249",
"n c #c2a467",
"m c #8096aa",
"M c #8399ac",
"N c #859eb5",
"B c #8a9fb2",
"V c #82a0be",
"C c #8da2b5",
"Z c #8ca6be",
"A c #96a4b2",
"S c #91a8bf",
"D c #9ba9b5",
"F c #86a4c0",
"G c #88a7c4",
"H c #8ca9c4",
"J c #8facc8",
"K c #93adc4",
"L c #92aec9",
"P c #95b0c9",
"I c #9bb2c5",
"U c #9bb3c9",
"Y c #a0b6c9",
"T c #a5b9cc",
"R c #abb9c7",
"E c #a8bbcc",
"W c #a5bdd3",
"Q c #b0bfcc",
"! c #abc0d3",
"~ c #adc4da",
"^ c #b4c1cd",
"/ c #bac5cf",
"( c #b1c2d2",
") c #bac7d3",
"_ c #bccad6",
"` c #becdd9",
"' c #c1ceda",
"] c #c8d3dd",
"[ c #ced9e1",
"{ c white",
"} c None",
/* pixels */
"}}            }}}}}}}}",
"}   o&57y6;$   }}}}}}}",
"   %0AR^EKBy=   }}}}}}",
"  %i^]_!TUKZN;  }}}}}}",
" o0/[`(TUPJGFf$  }}}}}",
" &D['(EUUPLJVH6  }}}}}",
" 4^'(TUUPPPJggM  }}}}}",
" 7)(        ds!  }}}}}",
" y^E        st~  }}}}}",
" 6IYUKPLJGgseaC  }}}}}",
" -AUKLLJGgsrqg7  }}}}}",
" OuKKJHGgsrqtK$  }}}}}",
"  *NKZZgstwtL4  }}}}}}",
"   ;fLFsaaNS4  .  }}}}",
"}   $6fWWB7$  Xc9  }}}",
"}}           .zbn8  }}",
"}}}}        } ,kzb3  }",
"}}}}}}}}}}}}}  :hkl1  ",
"}}}}}}}}}}}}}}  #<2h> ",
"}}}}}}}}}}}}}}} .@:,# ",
"}}}}}}}}}}}}}}}}  @+  ",
"}}}}}}}}}}}}}}}}}    }"
};
